<svg xmlns="http://www.w3.org/2000/svg" viewBox="0 0 1184 944" width="1184" height="944">
	<defs>
		<clipPath clipPathUnits="userSpaceOnUse" id="cp1">
			<path d="M0 0L1184 0L1184 944L0 944Z" />
		</clipPath>
	</defs>
	<style>
		tspan { white-space:pre }
		.shp0 { fill: #0a389d } 
		.shp1 { fill: #ff2e17 } 
		.shp2 { fill: #707176 } 
	</style>
	<g id="Page 1" clip-path="url(#cp1)">
		<path id="Path 1" fill-rule="evenodd" class="shp0" d="M211.46 37.63L211.46 91.78L149.17 91.78L149.17 416.7L89.61 416.7L89.61 91.78L27.34 91.78L27.34 37.63L211.46 37.63ZM480.76 37.63L480.76 91.79L377.87 91.79L377.87 197.39L459.64 197.39L459.64 251.53L377.87 251.53L377.87 362.55L480.76 362.55L480.76 416.7L318.29 416.7L318.29 37.63L480.76 37.63ZM733.67 37.63L794.32 416.7L734.21 416.7L723.92 347.93L650.82 347.93L640.52 416.7L585.83 416.7L646.48 37.63L733.67 37.63ZM658.4 296.48L715.8 296.48L687.09 104.78L658.4 296.48ZM1155.55 37.63L1155.55 416.7L1099.23 416.7L1099.23 144.86L1058.07 416.7L1001.74 416.7L957.34 148.64L957.34 416.7L905.36 416.7L905.36 37.63L988.2 37.63L1032.07 306.77L1072.68 37.63L1155.55 37.63ZM124.47 575.43L170.52 575.43L170.52 607.86L124.47 607.86L124.47 701.57L88.81 701.57L88.81 474.57L183.16 474.57L183.16 507L124.47 507L124.47 575.43Z" />
		<path id="Path 2" fill-rule="evenodd" class="shp0" d="M341.38 701.57C339.43 695.73 338.13 692.17 338.13 673.69L338.13 638.01C338.13 616.93 331 609.16 314.8 609.16L302.46 609.16L302.46 701.57L266.8 701.57L266.8 474.56L320.62 474.56C357.59 474.56 373.49 491.76 373.49 526.77L373.49 544.61C373.49 567.96 366.04 583.19 350.13 590.67C367.96 598.11 373.8 615.3 373.8 638.99L373.8 674C373.8 685.03 374.14 693.13 377.7 701.57L341.38 701.57ZM302.46 506.99L302.46 576.73L316.41 576.73C329.71 576.73 337.81 570.89 337.81 552.72L337.81 530.36C337.81 514.12 332.3 506.99 319.66 506.99L302.46 506.99ZM582.63 701.57L546.62 701.57L540.47 660.38L496.69 660.38L490.52 701.57L457.77 701.57L494.09 474.56L546.31 474.56L582.63 701.57ZM501.23 629.58L535.6 629.58L518.4 514.78L501.23 629.58ZM697.88 537.14L697.88 701.57L665.77 701.57L665.77 474.56L710.53 474.56L747.16 610.45L747.16 474.56L778.94 474.56L778.94 701.57L742.31 701.57L697.88 537.14ZM972.35 616.94L972.35 647.09C972.35 683.4 954.19 704.16 919.17 704.16C884.14 704.16 865.98 683.4 865.98 647.09L865.98 529.04C865.98 492.73 884.14 471.98 919.17 471.98C954.19 471.98 972.35 492.73 972.35 529.04L972.35 551.11L938.62 551.11L938.62 526.76C938.62 510.56 931.49 504.4 920.14 504.4C908.8 504.4 901.66 510.56 901.66 526.76L901.66 649.37C901.66 665.57 908.8 671.41 920.14 671.41C931.49 671.41 938.62 665.57 938.62 649.37L938.62 616.94L972.35 616.94ZM1093.93 570.23L1142.89 570.23L1142.89 602.66L1093.93 602.66L1093.93 669.14L1155.54 669.14L1155.54 701.57L1058.27 701.57L1058.27 474.57L1155.54 474.57L1155.54 506.99L1093.93 506.99L1093.93 570.23ZM380.05 850.37L88.67 850.37L88.67 837.53L380.05 837.53L380.05 850.37Z" />
		<path id="Path 3" class="shp1" d="M1156.66 850.37L865.27 850.37L865.27 837.53L1156.66 837.53L1156.66 850.37Z" />
		<path id="Path 4" fill-rule="evenodd" class="shp2" d="M417.16 904.81L417.16 781.05L470.28 781.05L470.28 799.7L435.81 799.7L435.81 833.64L460.99 833.64L460.99 852.29L435.81 852.29L435.81 886.16L470.28 886.16L470.28 904.81L417.16 904.81ZM551.84 904.81L531.83 904.81L517.51 865.4L503.12 904.81L483.11 904.81L507.33 842.52L483.11 781.05L503.73 781.05L517.51 819.18L531.21 781.05L551.84 781.05L527.62 842.52L551.84 904.81ZM596.76 781.05C605.85 781.05 613.08 783.93 618.48 789.67C623.49 795.14 626 802.11 626 810.57L626 828.55C626 836.68 623.16 843.66 617.46 849.45C611.78 855.24 604.89 858.13 596.81 858.13L586.04 858.13L586.04 904.81L567.38 904.81L567.38 781.05L596.76 781.05ZM607.89 810.91C607.89 807.64 606.93 805.03 605.02 803.07C603.1 801.1 600.51 800.12 597.27 800.12L586.04 800.12L586.04 839.68L597.27 839.68C600.25 839.68 602.75 838.62 604.81 836.51C606.85 834.41 607.89 831.89 607.89 828.95L607.89 810.91ZM668.28 779.56C676.5 779.56 683.51 782.45 689.27 788.24C695.05 794.04 697.93 801.03 697.93 809.21L697.93 876.72C697.93 884.96 695.03 891.95 689.24 897.72C683.46 903.49 676.47 906.37 668.28 906.37C660.09 906.37 653.13 903.49 647.42 897.69C641.69 891.9 638.83 884.91 638.83 876.72L638.83 809.21C638.83 800.99 641.72 793.98 647.52 788.21C653.3 782.44 660.22 779.56 668.28 779.56ZM678.45 808.86C678.45 805.88 677.42 803.36 675.37 801.3C673.3 799.25 670.79 798.22 667.8 798.22C664.86 798.22 662.34 799.25 660.23 801.3C658.14 803.36 657.08 805.88 657.08 808.86L657.08 876.59C657.08 879.53 658.14 882.05 660.23 884.12C662.34 886.2 664.86 887.24 667.8 887.24C670.79 887.24 673.3 886.2 675.37 884.12C677.42 882.05 678.45 879.53 678.45 876.59L678.45 808.86ZM743.79 781.05C754.2 781.05 761.81 783.93 766.66 789.67C770.96 794.69 773.11 801.66 773.11 810.57L773.11 828.55C773.11 837.33 769.79 844.72 763.15 850.73L776.98 904.81L756.85 904.81L745.48 858.05C744.93 858.11 744.36 858.13 743.78 858.13L733.07 858.13L733.07 904.81L714.42 904.81L714.42 781.05L743.79 781.05ZM754.93 810.91C754.93 803.71 751.38 800.12 744.31 800.12L733.07 800.12L733.07 839.68L744.31 839.68C747.28 839.68 749.79 838.62 751.85 836.51C753.89 834.41 754.93 831.89 754.93 828.95L754.93 810.91ZM806.63 799.71L786.82 799.71L786.82 781.06L845.03 781.06L845.03 799.71L825.28 799.71L825.28 904.82L806.63 904.82L806.63 799.71Z" />
	</g>
</svg>